<svg width="24" height="16" viewBox="0 0 24 16" fill="none" xmlns="http://www.w3.org/2000/svg">
<path d="M11.739 9.36L14.139 3.71L13.059 1.5H10.499V0H13.999L14.729 1.5H21.749L20.749 5H16.439L17.109 6.37C17.8683 6.06048 18.6922 5.94241 19.5079 6.02616C20.3236 6.10992 21.1062 6.39294 21.7869 6.85031C22.4675 7.30768 23.0252 7.92537 23.411 8.64899C23.7967 9.37262 23.9987 10.18 23.999 11C23.999 13.76 21.759 16 18.999 16C16.239 16 13.999 13.76 13.999 11C13.999 9.45 14.709 8.06 15.819 7.15L14.999 5.5L12.249 12H9.89898C9.70978 12.9269 9.26149 13.7811 8.60618 14.4634C7.95088 15.1458 7.11545 15.6282 6.19692 15.8546C5.2784 16.0811 4.31448 16.0423 3.4171 15.7428C2.51973 15.4433 1.72574 14.8954 1.12734 14.1627C0.528946 13.4299 0.150702 12.5425 0.0365414 11.6034C-0.077619 10.6642 0.076989 9.71201 0.482409 8.85726C0.887828 8.0025 1.52742 7.2803 2.32691 6.77454C3.12639 6.26877 4.05295 6.00019 4.99898 6C7.58898 6 9.71898 7.97 9.99898 10.5H10.579L8.29898 5H7.49898C7.08898 5 6.74898 4.66 6.74898 4.25C6.74898 3.84 7.08898 3.5 7.49898 3.5H10.249C10.659 3.5 10.999 3.84 10.999 4.25C10.999 4.66 10.659 5 10.249 5H9.96898L11.739 9.36ZM4.99898 7.5C3.06898 7.5 1.49898 9.07 1.49898 11C1.5008 11.8404 1.80463 12.6522 2.35507 13.2873C2.90551 13.9224 3.66588 14.3385 4.49753 14.4598C5.32918 14.581 6.1767 14.3993 6.88554 13.9477C7.59438 13.4962 8.11731 12.8049 8.35898 12H3.99898V10.5H8.46898C8.21898 8.8 6.75898 7.5 4.99898 7.5ZM18.999 7.5C18.569 7.5 18.149 7.58 17.769 7.72L19.699 11.68L18.349 12.34L16.499 8.55C15.879 9.18 15.499 10.05 15.499 11C15.499 12.93 17.069 14.5 18.999 14.5C20.929 14.5 22.499 12.93 22.499 11C22.499 9.07 20.929 7.5 18.999 7.5Z" fill="#336699"/>
</svg>
