<svg width="16" height="15" viewBox="0 0 16 15" fill="none" xmlns="http://www.w3.org/2000/svg">
<path d="M1.77778 5.33333L3.11111 1.33333H12.8889L14.2222 5.33333H1.77778ZM12.8889 9.77778C12.5353 9.77778 12.1961 9.6373 11.9461 9.38725C11.696 9.13721 11.5556 8.79807 11.5556 8.44444C11.5556 8.09082 11.696 7.75168 11.9461 7.50164C12.1961 7.25159 12.5353 7.11111 12.8889 7.11111C13.2425 7.11111 13.5816 7.25159 13.8317 7.50164C14.0817 7.75168 14.2222 8.09082 14.2222 8.44444C14.2222 8.79807 14.0817 9.13721 13.8317 9.38725C13.5816 9.6373 13.2425 9.77778 12.8889 9.77778ZM3.11111 9.77778C2.75749 9.77778 2.41835 9.6373 2.1683 9.38725C1.91825 9.13721 1.77778 8.79807 1.77778 8.44444C1.77778 8.09082 1.91825 7.75168 2.1683 7.50164C2.41835 7.25159 2.75749 7.11111 3.11111 7.11111C3.46473 7.11111 3.80387 7.25159 4.05392 7.50164C4.30397 7.75168 4.44444 8.09082 4.44444 8.44444C4.44444 8.79807 4.30397 9.13721 4.05392 9.38725C3.80387 9.6373 3.46473 9.77778 3.11111 9.77778ZM14.1511 0.888889C13.9733 0.373333 13.4756 0 12.8889 0H3.11111C2.52444 0 2.02667 0.373333 1.84889 0.888889L0 6.22222V13.3333C0 13.5691 0.0936505 13.7952 0.260349 13.9619C0.427048 14.1286 0.653141 14.2222 0.888889 14.2222H1.77778C2.01353 14.2222 2.23962 14.1286 2.40632 13.9619C2.57302 13.7952 2.66667 13.5691 2.66667 13.3333V12.4444H13.3333V13.3333C13.3333 13.5691 13.427 13.7952 13.5937 13.9619C13.7604 14.1286 13.9865 14.2222 14.2222 14.2222H15.1111C15.3469 14.2222 15.573 14.1286 15.7397 13.9619C15.9064 13.7952 16 13.5691 16 13.3333V6.22222L14.1511 0.888889Z" fill="white"/>
</svg>
