<svg width="19" height="20" viewBox="0 0 19 20" fill="none" xmlns="http://www.w3.org/2000/svg">
<path d="M18.8627 9.11282L9.92314 0.173303C9.81147 0.0623035 9.66043 0 9.50298 0C9.34553 0 9.19448 0.0623035 9.08282 0.173303L0.143305 9.11282C0.0456694 9.22683 -0.00534903 9.37348 0.000444462 9.52347C0.00623796 9.67346 0.0684167 9.81575 0.174555 9.92189C0.280694 10.028 0.422975 10.0902 0.572966 10.096C0.722957 10.1018 0.86961 10.0508 0.983619 9.95314L9.5 1.43675L18.0164 9.9591C18.1304 10.0567 18.277 10.1077 18.427 10.102C18.577 10.0962 18.7193 10.034 18.8254 9.92785C18.9316 9.82171 18.9938 9.67943 18.9996 9.52943C19.0053 9.37944 18.9543 9.23279 18.8567 9.11878L18.8627 9.11282Z" fill="#336699"/>
<path d="M15.4594 17.8796H12.4796V11.92H6.51992V17.8796H3.54008V9.5361L2.34814 10.728V17.8796C2.34814 18.1958 2.47372 18.4989 2.69725 18.7225C2.92079 18.946 3.22396 19.0716 3.54008 19.0716H7.71185V13.1119H11.2877V19.0716H15.4594C15.7756 19.0716 16.0787 18.946 16.3023 18.7225C16.5258 18.4989 16.6514 18.1958 16.6514 17.8796V10.585L15.4594 9.39307V17.8796Z" fill="#336699"/>
</svg>
