<svg width="21" height="31" viewBox="0 0 21 31" fill="none" xmlns="http://www.w3.org/2000/svg">
<path d="M20.4717 7.68261C20.4277 7.54783 20.3506 7.33442 20.2406 7.04239C20.1305 6.75036 20.0535 6.55942 20.0094 6.46957C19.0849 4.26812 17.7311 2.63949 15.9481 1.5837C14.1651 0.527899 12.305 0 10.3679 0C7.85849 0 5.5912 0.842391 3.56604 2.52717C1.54088 4.21196 0.352201 6.58188 0 9.63696V10.9174L0.0660377 11.2543V11.7261C0.154088 12.4449 0.38522 13.2649 0.759434 14.1859C1.13365 15.1069 1.47484 15.8482 1.78302 16.4098C2.0912 16.9714 2.58648 17.825 3.26887 18.9707C3.95126 20.1163 4.40252 20.8688 4.62264 21.2283C5.89937 23.4297 7.85849 26.687 10.5 31C10.8522 30.4159 12.0629 28.3043 14.1321 24.6652C14.2201 24.5304 14.3852 24.2609 14.6274 23.8565C14.8695 23.4522 15.0346 23.1377 15.1226 22.913C15.2107 22.7783 15.3538 22.5873 15.5519 22.3402C15.75 22.0931 15.8931 21.9022 15.9811 21.7674C16.2893 21.1833 16.9607 20.0714 17.9953 18.4315C19.0299 16.7917 19.7893 15.4101 20.2736 14.287C20.7579 13.1638 21 12.063 21 10.9848V9.50217C21 9.00797 20.8239 8.40145 20.4717 7.68261ZM10.434 14.3543C8.71698 14.3543 7.5283 13.5007 6.86792 11.7935C6.8239 11.5688 6.80189 11.2319 6.80189 10.7826V9.90652C6.80189 8.78333 7.1761 7.91848 7.92453 7.31196C8.67296 6.70543 9.55346 6.40217 10.566 6.40217C11.6667 6.40217 12.5802 6.78406 13.3066 7.54783C14.033 8.31159 14.3962 9.25507 14.3962 10.3783C14.3962 11.5014 14.011 12.4449 13.2406 13.2087C12.4701 13.9725 11.5346 14.3543 10.434 14.3543Z" fill="#336699"/>
</svg>
