<svg width="26" height="17" viewBox="0 0 26 17" fill="none" xmlns="http://www.w3.org/2000/svg">
<path d="M18.2812 9.83741e-06C18.0298 -0.00100516 17.7843 0.0765475 17.5794 0.221759C17.3745 0.366971 17.2204 0.572534 17.1389 0.809533H13.8125V2.42858H17.2656L17.5199 3.2381H14.625C12.5044 3.2381 11.4384 4.37629 11.0451 4.85715H8.30294C7.38477 4.32705 6.34243 4.0478 5.28125 4.04763C3.52625 4.04763 2.08163 4.73086 2.08163 4.73086L2.79337 6.19772C2.79337 6.19772 3.95444 5.66667 5.28125 5.66667C5.93856 5.66667 6.55687 5.86582 7.00781 6.04634L6.29688 7.51239C5.8367 7.36749 5.35757 7.29111 4.875 7.28572C2.18644 7.28572 0 9.46415 0 12.1429C0 14.8216 2.18644 17 4.875 17C6.02627 17.0003 7.14034 16.5938 8.01901 15.8526C8.89769 15.1114 9.48399 14.0838 9.67363 12.9524H12.4922C13.1081 12.9524 13.6922 12.5954 13.9652 12.0417H13.9393L14.8281 10.2453C16.1801 9.62605 17.2819 8.551 18.0529 7.5391C18.265 7.26062 18.4462 7.00482 18.6111 6.75386L20.3377 12.3703L21.9123 11.9154L20.9982 8.92986C21.0421 8.92662 21.0803 8.90477 21.125 8.90477C22.9182 8.90477 24.375 10.3562 24.375 12.1429C24.375 13.9295 22.9182 15.381 21.125 15.381C20.4902 15.3801 19.8695 15.1941 19.3395 14.8459C18.8095 14.4978 18.3933 14.0028 18.1423 13.4218C17.8913 12.8409 17.8163 12.1995 17.9268 11.5766C18.0373 10.9538 18.3282 10.3767 18.7639 9.91667L18.2561 8.22153C17.6357 8.6719 17.1307 9.26172 16.7822 9.94308C16.4336 10.6244 16.2513 11.3781 16.25 12.1429C16.25 14.8216 18.4364 17 21.125 17C23.8136 17 26 14.8216 26 12.1429C26 9.46415 23.8136 7.28572 21.125 7.28572C20.9089 7.28572 20.7001 7.30758 20.4904 7.33672L18.9922 2.42858H20.3125V9.83741e-06H18.2812ZM14.625 4.85715H17.875C17.7547 5.07572 17.3924 5.7201 16.7578 6.55229C16.0022 7.5391 14.9516 8.58824 13.9393 8.95577L13.6094 9.05696L13.4826 9.36053L12.4922 11.3333H4.875V12.9524H7.99825C7.63587 14.3472 6.38544 15.381 4.875 15.381C3.08181 15.381 1.625 13.9295 1.625 12.1429C1.625 10.3562 3.08181 8.90477 4.875 8.90477C6.07181 8.90477 7.10287 9.55967 7.66837 10.5238H9.4705C9.13963 9.60129 8.53809 8.79916 7.74394 8.22153L8.63281 6.4762H11.8064L12.0607 6.12162C12.0607 6.12162 12.8481 4.85715 14.625 4.85715Z" fill="#336699"/>
</svg>
