<svg width="21" height="21" viewBox="0 0 21 21" fill="none" xmlns="http://www.w3.org/2000/svg">
<path d="M12.659 1.71902C12.5184 1.57857 12.3278 1.49968 12.129 1.49968C11.9303 1.49968 11.7396 1.57857 11.599 1.71902L1.71902 11.599C1.57857 11.7396 1.49968 11.9303 1.49968 12.129C1.49968 12.3278 1.57857 12.5184 1.71902 12.659L2.78802 13.727C3.31071 13.435 3.91442 13.3215 4.50746 13.4039C5.1005 13.4862 5.65047 13.7598 6.07384 14.1832C6.4972 14.6066 6.77083 15.1565 6.85317 15.7496C6.9355 16.3426 6.82204 16.9463 6.53002 17.469L7.59902 18.539C7.66867 18.6087 7.75137 18.664 7.8424 18.7017C7.93342 18.7394 8.03099 18.7589 8.12952 18.7589C8.22805 18.7589 8.32562 18.7394 8.41664 18.7017C8.50767 18.664 8.59037 18.6087 8.66002 18.539L18.539 8.66002C18.6795 8.51939 18.7584 8.32877 18.7584 8.13002C18.7584 7.93127 18.6795 7.74064 18.539 7.60002L17.469 6.52902C16.9463 6.82104 16.3426 6.9345 15.7496 6.85217C15.1565 6.76983 14.6066 6.4962 14.1832 6.07284C13.7598 5.64947 13.4862 5.0995 13.4039 4.50646C13.3215 3.91342 13.435 3.30971 13.727 2.78702L12.659 1.71902ZM10.539 0.659019C10.748 0.450085 10.996 0.284349 11.269 0.171274C11.542 0.0581989 11.8345 0 12.13 0C12.4255 0 12.7181 0.0581989 12.9911 0.171274C13.264 0.284349 13.5121 0.450085 13.721 0.659019L14.892 1.83102C15.403 2.34102 15.312 3.05802 15.054 3.49102C14.9122 3.72987 14.854 4.00916 14.8885 4.28479C14.9231 4.56042 15.0485 4.81667 15.2449 5.0131C15.4414 5.20952 15.6976 5.33492 15.9733 5.36949C16.2489 5.40407 16.5282 5.34584 16.767 5.20402C17.2 4.94702 17.917 4.85502 18.427 5.36602L19.599 6.53902C19.808 6.74795 19.9737 6.99599 20.0868 7.26898C20.1998 7.54196 20.258 7.83454 20.258 8.13002C20.258 8.4255 20.1998 8.71808 20.0868 8.99106C19.9737 9.26405 19.808 9.51209 19.599 9.72102L9.72102 19.599C9.51209 19.808 9.26405 19.9737 8.99106 20.0868C8.71808 20.1998 8.4255 20.258 8.13002 20.258C7.83454 20.258 7.54196 20.1998 7.26898 20.0868C6.99599 19.9737 6.74795 19.808 6.53902 19.599L5.36702 18.428C4.85702 17.918 4.94702 17.2 5.20502 16.768C5.34685 16.5292 5.40507 16.2499 5.37049 15.9742C5.33592 15.6986 5.21052 15.4424 5.0141 15.2459C4.81767 15.0495 4.56141 14.9241 4.28579 14.8895C4.01016 14.855 3.73087 14.9132 3.49202 15.055C3.05902 15.312 2.34202 15.403 1.83202 14.892L0.659019 13.72C0.450085 13.5111 0.284349 13.263 0.171274 12.9901C0.0581989 12.7171 0 12.4245 0 12.129C0 11.8335 0.0581989 11.541 0.171274 11.268C0.284349 10.995 0.450085 10.747 0.659019 10.538L10.539 0.659019Z" fill="#336699"/>
</svg>
